<?xml version="1.0" standalone="no"?>
<!DOCTYPE svg PUBLIC "-//W3C//DTD SVG 20010904//EN"
 "http://www.w3.org/TR/2001/REC-SVG-20010904/DTD/svg10.dtd">
<svg version="1.0" xmlns="http://www.w3.org/2000/svg"
 width="498.000000pt" height="501.000000pt" viewBox="0 0 498.000000 501.000000"
 preserveAspectRatio="xMidYMid meet">

<g transform="translate(0.000000,501.000000) scale(0.100000,-0.100000)"
fill="#000000" stroke="none">
<path d="M156 4985 c-21 -7 -58 -32 -81 -55 -82 -80 -75 138 -75 -2421 0
-2272 0 -2278 20 -2333 21 -56 62 -100 123 -133 30 -17 152 -18 2349 -18
l2317 0 58 41 c41 29 65 54 83 90 l25 49 3 2295 c2 2055 1 2299 -13 2341 -20
58 -96 133 -151 148 -27 8 -722 11 -2329 11 -1927 -1 -2296 -3 -2329 -15z
m4553 -178 c19 -7 44 -25 55 -40 l21 -28 0 -2229 0 -2229 -30 -31 c-16 -16
-46 -35 -66 -40 -24 -7 -797 -9 -2225 -8 -2131 3 -2190 4 -2217 22 -61 42 -57
-130 -57 2288 0 2201 0 2213 20 2246 40 66 -130 61 2275 61 1671 0 2198 -3
2224 -12z"/>
<path d="M645 4358 c-3 -7 -4 -240 -3 -518 l3 -505 505 -3 c466 -2 506 -1 518
15 16 22 18 974 2 1004 -10 18 -27 19 -516 19 -394 0 -506 -3 -509 -12z m880
-508 l0 -365 -367 -3 -368 -2 0 370 0 370 368 -2 367 -3 0 -365z"/>
<path d="M944 4057 c-2 -7 -3 -105 -2 -217 l3 -205 204 -3 c142 -2 208 1 217
9 19 15 20 399 2 417 -18 18 -417 17 -424 -1z"/>
<path d="M2132 4358 c-7 -7 -12 -33 -12 -59 0 -81 4 -79 -144 -79 -89 0 -136
-4 -144 -12 -8 -8 -12 -53 -12 -134 0 -144 5 -154 79 -154 59 0 71 12 71 71 0
81 -4 79 137 79 68 0 133 5 144 10 17 10 19 22 19 138 0 86 -4 132 -12 140
-16 16 -110 16 -126 0z"/>
<path d="M2870 4351 c-5 -11 -10 -36 -10 -56 0 -61 13 -75 73 -75 29 0 58 5
65 12 7 7 12 35 12 63 0 28 -5 56 -12 63 -7 7 -36 12 -65 12 -41 0 -54 -4 -63
-19z"/>
<path d="M3315 4358 c-3 -7 -4 -240 -3 -518 l3 -505 505 -3 c466 -2 506 -1
518 15 16 22 18 974 2 1004 -10 18 -27 19 -516 19 -394 0 -506 -3 -509 -12z
m880 -508 l0 -365 -367 -3 -368 -2 0 370 0 370 368 -2 367 -3 0 -365z"/>
<path d="M3614 4057 c-2 -7 -3 -105 -2 -217 l3 -205 204 -3 c142 -2 208 1 217
9 19 15 20 399 2 417 -18 18 -417 17 -424 -1z"/>
<path d="M2577 4213 c-4 -3 -7 -34 -7 -69 0 -47 4 -63 16 -68 26 -10 234 -7
255 4 15 9 19 22 19 69 0 44 -4 60 -16 65 -21 8 -259 8 -267 -1z"/>
<path d="M3023 4213 c-8 -3 -13 -25 -13 -62 0 -31 -5 -62 -12 -69 -7 -7 -38
-12 -69 -12 -43 0 -58 -4 -63 -16 -3 -9 -6 -67 -6 -129 0 -62 3 -120 6 -129 5
-12 20 -16 64 -16 35 0 62 -5 68 -13 6 -7 12 -40 14 -72 l3 -60 70 0 70 0 3
279 c2 197 -1 283 -9 292 -11 14 -99 19 -126 7z"/>
<path d="M1982 3907 c-6 -7 -12 -37 -14 -67 l-3 -55 -64 -6 c-37 -4 -67 -12
-72 -20 -14 -23 -11 -553 3 -567 12 -12 95 -16 122 -6 14 5 16 34 16 213 0
148 3 210 12 219 7 7 35 12 63 12 28 0 56 -5 63 -12 9 -9 12 -70 12 -214 0
-152 3 -204 13 -212 7 -6 40 -12 72 -14 l60 -3 3 -209 c2 -145 -1 -213 -9
-222 -9 -11 -44 -14 -144 -14 -148 0 -145 1 -145 -70 0 -65 5 -70 70 -70 35 0
62 -5 68 -13 6 -7 12 -40 14 -72 l3 -60 62 -3 c36 -2 66 -8 73 -17 6 -7 10
-38 8 -72 l-3 -58 -135 -3 c-152 -3 -160 -6 -160 -75 0 -75 5 -77 148 -77 86
0 132 -4 140 -12 7 -7 12 -35 12 -64 0 -65 13 -76 82 -72 l53 3 5 285 c3 157
9 291 13 298 5 7 31 12 66 12 31 0 62 5 69 12 8 8 12 55 12 145 0 73 1 134 3
135 1 1 133 5 292 8 l290 5 3 120 c4 171 6 167 -76 163 l-67 -3 -3 -60 c-2
-32 -8 -65 -14 -72 -14 -17 -112 -17 -126 0 -6 7 -12 40 -14 72 l-3 60 -61 3
c-74 4 -82 -4 -86 -83 l-3 -60 -65 0 -65 0 -5 60 c-3 33 -9 66 -13 73 -5 7
-31 12 -67 12 -36 0 -62 5 -67 13 -4 6 -10 39 -13 72 l-5 60 -65 5 -65 5 -3
212 c-3 241 -1 236 -85 232 -24 -2 -49 1 -55 5 -7 4 -12 29 -12 56 0 75 -4 80
-70 80 -35 0 -62 -5 -68 -13z"/>
<path d="M2425 3907 c-3 -7 -4 -138 -3 -292 l3 -280 60 -3 c82 -4 85 1 85 160
0 151 -16 137 165 141 l120 2 3 62 c4 78 -6 85 -131 83 -51 -1 -107 -1 -124
-1 l-33 1 0 58 c0 32 -5 63 -12 70 -16 16 -127 16 -133 -1z"/>
<path d="M2866 3605 c-8 -21 -8 -73 0 -103 6 -21 11 -23 73 -20 l66 3 0 65 0
65 -66 3 c-54 2 -68 0 -73 -13z"/>
<path d="M2720 3461 c-15 -29 -12 -107 4 -120 9 -7 38 -11 73 -9 l58 3 3 64
c4 75 -1 81 -75 81 -42 0 -54 -4 -63 -19z"/>
<path d="M3021 3466 c-7 -9 -11 -38 -9 -73 l3 -58 58 -3 c35 -2 64 2 73 9 17
14 19 110 2 127 -17 17 -113 15 -127 -2z"/>
<path d="M647 3174 c-4 -4 -7 -70 -7 -146 l0 -138 59 0 c75 0 91 -14 91 -78 0
-67 -9 -76 -82 -82 l-63 -5 0 -65 0 -65 290 0 290 0 3 60 c2 33 7 64 12 69 5
5 27 9 49 8 22 -1 52 3 66 8 23 9 25 15 25 68 0 32 5 63 12 70 7 7 38 12 70
12 l59 0 -3 68 -3 67 -120 2 c-170 4 -165 2 -165 71 0 32 -5 63 -12 70 -16 16
-114 16 -125 0 -4 -7 -10 -40 -13 -73 l-5 -60 -58 -3 c-34 -2 -65 2 -72 8 -9
7 -15 37 -17 73 l-3 62 -136 3 c-74 1 -138 -1 -142 -4z"/>
<path d="M1537 3174 c-4 -4 -7 -35 -7 -70 0 -47 4 -63 16 -68 9 -3 69 -6 134
-6 139 0 142 2 138 87 l-3 58 -136 3 c-74 1 -138 -1 -142 -4z"/>
<path d="M3317 3174 c-4 -4 -7 -67 -7 -140 0 -95 -4 -135 -12 -141 -7 -4 -40
-10 -73 -13 l-60 -5 -3 -60 c-2 -32 -8 -65 -13 -72 -6 -7 -38 -13 -72 -15
l-62 -3 0 -140 0 -140 64 -3 c75 -4 81 1 81 74 0 27 5 55 12 62 16 16 114 16
125 0 4 -7 10 -40 13 -73 l5 -60 62 -3 c34 -2 66 -8 72 -15 5 -7 11 -40 13
-72 l3 -60 65 -5 65 -5 3 -60 c2 -32 8 -65 14 -72 14 -18 259 -18 276 -1 7 7
12 35 12 63 0 28 -5 56 -12 63 -7 7 -38 12 -69 12 -65 0 -69 5 -69 79 0 26 -5
52 -12 59 -7 7 -38 12 -69 12 -43 0 -58 4 -63 16 -11 28 -6 111 7 122 7 6 40
12 72 14 l60 3 0 65 0 65 -62 5 c-34 3 -66 10 -72 15 -5 6 -11 37 -13 70 l-3
60 -45 3 c-92 5 -91 4 -88 80 l3 67 65 0 65 0 5 -65 5 -65 70 0 70 0 0 140 0
140 -211 3 c-115 1 -213 -1 -217 -4z"/>
<path d="M3907 3173 c-13 -12 -8 -120 6 -131 7 -6 40 -12 72 -14 l60 -3 5 -65
5 -65 67 -3 67 -3 3 131 c2 73 -1 138 -5 146 -6 11 -36 14 -141 14 -73 0 -136
-3 -139 -7z"/>
<path d="M1831 3016 c-7 -8 -11 -37 -9 -68 l3 -53 145 0 145 0 3 44 c7 93 10
91 -142 91 -103 0 -136 -3 -145 -14z"/>
<path d="M1537 2874 c-4 -4 -7 -35 -7 -70 0 -75 -4 -73 156 -72 80 0 117 4
124 13 6 7 10 40 8 72 l-3 58 -136 3 c-74 1 -138 -1 -142 -4z"/>
<path d="M3756 2864 c-11 -29 -6 -102 8 -117 17 -17 219 -23 260 -7 26 9 27
12 24 72 l-3 63 -141 3 c-123 2 -142 0 -148 -14z"/>
<path d="M2716 2715 c-9 -24 -7 -98 3 -113 5 -9 27 -12 72 -10 l64 3 0 65 0
65 -66 3 c-54 2 -68 0 -73 -13z"/>
<path d="M4207 2723 c-4 -3 -7 -28 -7 -54 0 -82 5 -79 -145 -79 -101 0 -135
-3 -144 -14 -8 -9 -11 -57 -9 -147 l3 -134 134 -3 c75 -1 140 -7 147 -13 7 -6
14 -38 16 -72 l3 -62 60 -3 c47 -3 62 0 72 14 18 25 19 544 1 562 -13 13 -120
17 -131 5z"/>
<path d="M1391 2576 c-7 -9 -11 -38 -9 -73 l3 -58 137 -3 c132 -2 137 -2 149
19 14 27 6 108 -12 120 -8 5 -69 9 -135 9 -93 0 -124 -3 -133 -14z"/>
<path d="M1836 2574 c-13 -12 -16 -40 -16 -138 0 -145 2 -148 87 -144 l58 3 3
134 c2 90 -1 138 -9 147 -16 20 -103 18 -123 -2z"/>
<path d="M2582 2581 c-9 -5 -12 -27 -10 -72 l3 -64 65 0 65 0 3 58 c2 35 -2
64 -9 73 -13 15 -95 19 -117 5z"/>
<path d="M947 2428 c-14 -11 -17 -36 -19 -148 l-3 -135 -65 -5 -65 -5 -3 -60
c-2 -32 -8 -65 -13 -72 -6 -7 -38 -13 -72 -15 l-62 -3 -3 -64 c-2 -45 1 -67
10 -72 21 -14 252 -11 266 3 7 7 12 33 12 59 0 73 5 79 65 79 81 0 85 3 85 69
0 31 5 62 12 69 7 7 38 12 69 12 66 0 69 -4 69 -86 0 -60 2 -62 95 -66 l50 -3
3 -60 c2 -32 8 -65 14 -72 12 -15 244 -18 267 -4 18 12 26 93 12 120 -10 18
-21 21 -71 21 -36 0 -62 5 -67 13 -4 6 -10 39 -13 72 l-5 60 -65 5 -65 5 -3
135 c-2 112 -5 137 -19 148 -22 16 -108 16 -121 -1 -6 -7 -12 -40 -14 -72 l-3
-60 -70 0 -70 0 -3 60 c-2 32 -8 65 -14 72 -13 17 -99 17 -121 1z"/>
<path d="M2727 2428 c-11 -9 -17 -31 -19 -73 l-3 -60 -65 -5 -65 -5 0 -70 0
-70 279 -3 c197 -2 283 1 292 9 17 14 19 110 2 127 -8 8 -55 12 -144 12 -148
0 -144 -2 -144 79 0 26 -5 52 -12 59 -16 16 -100 15 -121 0z"/>
<path d="M644 2276 c-3 -7 -4 -40 -2 -72 l3 -59 62 -3 c70 -3 79 5 81 72 2 64
-10 76 -79 76 -41 0 -61 -4 -65 -14z"/>
<path d="M1534 2276 c-3 -7 -4 -40 -2 -72 l3 -59 62 -3 c54 -3 63 0 73 18 13
23 11 85 -2 113 -7 13 -21 17 -69 17 -41 0 -61 -4 -65 -14z"/>
<path d="M3317 2283 c-4 -3 -7 -66 -7 -138 0 -97 -3 -135 -13 -143 -8 -7 -69
-13 -148 -14 l-134 -3 -3 -134 c-1 -79 -7 -140 -14 -148 -6 -8 -33 -13 -68
-13 -65 0 -70 -5 -70 -70 0 -65 5 -70 70 -70 72 0 82 -11 78 -87 l-3 -58 -60
-3 c-42 -2 -64 -8 -72 -19 -16 -21 -18 -385 -3 -414 9 -15 22 -19 64 -19 31 0
58 5 64 13 6 7 12 40 14 72 l3 60 140 5 140 5 5 60 c3 33 9 66 13 73 11 17
121 16 135 -1 7 -8 13 -69 14 -148 l3 -134 53 -3 c68 -4 82 8 82 68 0 74 5 80
65 80 88 0 85 -6 85 144 0 89 4 136 12 144 16 16 113 16 126 -1 6 -7 12 -40
14 -72 l3 -60 134 -3 c74 -1 138 1 142 5 4 4 9 31 10 58 4 77 10 85 77 85 32
0 63 5 70 12 14 14 17 245 4 266 -7 9 -43 12 -148 10 l-139 -3 -3 -60 c-3 -70
-17 -85 -77 -85 -60 0 -74 15 -77 85 l-3 60 -62 3 c-34 2 -66 9 -72 16 -6 7
-12 72 -13 147 l-3 134 -60 3 c-32 2 -65 8 -72 14 -8 6 -13 34 -13 69 0 66 -1
66 -90 71 l-45 3 -5 60 c-3 33 -9 66 -13 73 -9 13 -118 18 -130 5z m278 -663
l0 -215 -215 0 -215 0 -3 205 c-1 112 0 210 3 217 3 11 50 13 217 11 l213 -3
0 -215z"/>
<path d="M3314 1676 c-3 -7 -4 -38 -2 -67 l3 -54 58 -3 c72 -4 87 7 87 63 0
71 -4 75 -76 75 -46 0 -66 -4 -70 -14z"/>
<path d="M1684 2126 c-3 -7 -4 -40 -2 -72 l3 -59 44 -3 c82 -6 91 0 91 66 0
32 -5 63 -12 70 -17 17 -117 16 -124 -2z"/>
<path d="M1832 1978 c-13 -13 -18 -381 -6 -412 5 -14 27 -16 139 -16 102 0
135 -3 144 -14 7 -9 11 -38 9 -73 l-3 -58 -60 -3 c-70 -3 -85 -17 -85 -75 0
-75 5 -77 148 -77 86 0 132 4 140 12 8 8 12 53 12 138 0 85 4 130 12 138 16
16 114 16 125 0 4 -7 10 -74 13 -148 l5 -135 60 -3 c47 -3 62 0 72 14 10 13
13 72 13 221 0 174 2 203 15 203 8 1 64 1 124 1 157 1 152 -2 149 78 l-3 66
-140 5 -140 5 -3 62 c-2 36 -8 66 -17 73 -7 6 -38 10 -72 8 l-58 -3 -5 -135
c-3 -74 -9 -141 -13 -147 -9 -14 -239 -19 -271 -7 -13 5 -16 27 -16 134 0 71
-3 135 -6 144 -5 13 -27 16 -138 16 -89 0 -136 -4 -144 -12z"/>
<path d="M4207 1983 c-4 -3 -7 -34 -7 -69 0 -70 4 -74 75 -74 26 0 50 6 59 16
19 19 22 104 4 122 -13 13 -120 17 -131 5z"/>
<path d="M640 1176 l0 -514 25 -6 c40 -10 978 -6 995 4 13 8 15 76 18 497 1
268 0 498 -3 511 l-5 22 -515 0 -515 0 0 -514z m885 352 c3 -13 4 -180 3 -373
l-3 -350 -367 -3 -368 -2 -2 365 c-2 222 1 370 7 376 5 5 154 9 367 9 l358 0
5 -22z"/>
<path d="M952 1388 c-7 -9 -11 -83 -11 -221 l0 -207 23 -6 c12 -3 107 -4 210
-2 153 2 188 6 196 18 13 20 13 390 0 410 -13 21 -401 28 -418 8z"/>
<path d="M2716 1525 c-11 -30 -6 -102 8 -114 9 -7 38 -11 73 -9 l58 3 0 65 0
65 -66 3 c-54 2 -68 0 -73 -13z"/>
<path d="M1832 1238 c-16 -16 -16 -110 0 -126 12 -12 95 -16 122 -6 20 8 23
113 4 132 -16 16 -110 16 -126 0z"/>
<path d="M2282 1238 c-7 -7 -12 -37 -12 -70 0 -66 9 -72 91 -66 l44 3 0 70 0
70 -55 3 c-34 2 -60 -2 -68 -10z"/>
<path d="M2574 1236 c-3 -7 -4 -40 -2 -72 l3 -59 65 0 65 0 3 58 c2 35 -2 64
-9 73 -16 19 -118 19 -125 0z"/>
<path d="M1982 1087 c-6 -7 -12 -40 -14 -72 l-3 -60 -60 -3 c-32 -2 -65 -8
-72 -14 -15 -12 -19 -244 -4 -266 11 -18 80 -26 114 -13 25 10 27 15 27 63 0
75 6 80 81 76 l64 -3 3 -60 c3 -70 17 -85 75 -85 79 0 77 -5 77 223 0 145 -3
206 -12 215 -17 17 -262 17 -276 -1z"/>
<path d="M2427 1093 c-4 -3 -7 -34 -7 -69 0 -71 4 -74 80 -74 56 0 70 15 70
75 0 63 -13 75 -79 75 -32 0 -61 -3 -64 -7z"/>
<path d="M3760 1081 c-5 -11 -10 -76 -10 -144 0 -142 3 -137 -85 -137 -60 0
-65 -6 -65 -73 0 -70 4 -72 141 -74 67 -1 130 2 140 8 16 8 19 26 21 147 l3
137 60 3 c32 2 65 8 72 14 13 11 18 94 7 122 -5 14 -27 16 -140 16 -122 0
-134 -2 -144 -19z"/>
<path d="M4207 1093 c-4 -3 -7 -28 -7 -55 0 -77 -10 -88 -79 -88 -44 0 -60 -4
-65 -16 -3 -9 -6 -71 -6 -139 0 -113 2 -125 19 -135 11 -5 71 -10 135 -10 91
0 118 3 130 16 13 13 16 46 16 205 0 112 -4 198 -10 210 -9 15 -22 19 -69 19
-32 0 -61 -3 -64 -7z"/>
<path d="M2577 944 c-4 -4 -7 -35 -7 -70 0 -47 4 -63 16 -68 24 -9 247 -7 262
3 9 5 12 27 10 72 l-3 64 -136 3 c-74 1 -138 -1 -142 -4z"/>
<path d="M3016 934 c-3 -8 -6 -71 -6 -139 0 -113 2 -125 19 -135 25 -13 72
-13 105 0 23 8 25 15 28 72 l3 63 65 5 65 5 0 70 0 70 -136 3 c-118 2 -137 0
-143 -14z"/>
<path d="M2427 793 c-4 -3 -7 -32 -7 -64 0 -70 16 -83 87 -75 53 6 63 16 63
69 0 65 -12 77 -79 77 -32 0 -61 -3 -64 -7z"/>
</g>
</svg>
